<?xml version="1.0" encoding="UTF-8"?>
<svg version="1.1" xmlns="http://www.w3.org/2000/svg" width="225" height="225">
<path d="M0 0 C74.25 0 148.5 0 225 0 C225 74.25 225 148.5 225 225 C150.75 225 76.5 225 0 225 C0 150.75 0 76.5 0 0 Z " fill="#FEFEFE" transform="translate(0,0)"/>
<path d="M0 0 C14.87816629 11.2410883 24.91870212 26.58928825 27.5625 45.125 C29.65181842 63.63039171 24.66255465 80.76086028 13.9375 95.9140625 C4.00415128 107.70991411 -11.44596457 117.26758927 -27 119 C-50.20792234 120.19447229 -50.20792234 120.19447229 -60 116 C-61.11375 115.52433594 -62.2275 115.04867187 -63.375 114.55859375 C-79.13862158 107.23734278 -91.27283889 96.04986373 -98.00390625 79.76953125 C-101.50226944 70.04270968 -102.41251995 61.32827716 -102 51 C-99.03 50.505 -99.03 50.505 -96 50 C-93.71707854 53.4243822 -93.56776608 55.38483497 -93.125 59.4375 C-91.05692681 74.78228736 -85.09676602 87.96542432 -73 98 C-59.200276 108.2500233 -44.91250024 111.31451912 -28 110 C-13.96809208 107.5061063 -0.67507011 99.68087219 7.6875 88.125 C14.82250877 77.43046783 18.58080725 67.08634489 18.4375 54.125 C18.42992676 53.16045898 18.42235352 52.19591797 18.41455078 51.20214844 C18.06518415 36.06972787 11.73027484 24.26077902 1.48046875 13.32421875 C-5.64116392 6.65119287 -13.77943119 2.89700304 -23 0 C-23.99 -0.33 -24.98 -0.66 -26 -1 C-37.74721359 -1.91943537 -50.27744386 -2.41169761 -61 3 C-62.29550781 3.65355469 -62.29550781 3.65355469 -63.6171875 4.3203125 C-74.14521965 10.17633038 -81.04852198 17.58969762 -87 28 C-86.30132812 28.04898438 -85.60265625 28.09796875 -84.8828125 28.1484375 C-83.97273438 28.22320312 -83.06265625 28.29796875 -82.125 28.375 C-81.22007813 28.44460937 -80.31515625 28.51421875 -79.3828125 28.5859375 C-77 29 -77 29 -75 31 C-74.75 33.5 -74.75 33.5 -75 36 C-78.04103566 39.04103566 -81.04841086 38.29330847 -85.20507812 38.32226562 C-86.27177734 38.31904297 -87.33847656 38.31582031 -88.4375 38.3125 C-89.50033203 38.32861328 -90.56316406 38.34472656 -91.65820312 38.36132812 C-93.18670898 38.36229492 -93.18670898 38.36229492 -94.74609375 38.36328125 C-95.68122803 38.36626221 -96.6163623 38.36924316 -97.57983398 38.37231445 C-100 38 -100 38 -101.8034668 36.81713867 C-103.44667888 34.32164233 -103.38806301 32.53849619 -103.3984375 29.5625 C-103.40230469 28.50289062 -103.40617187 27.44328125 -103.41015625 26.3515625 C-103.39855469 25.24554688 -103.38695312 24.13953125 -103.375 23 C-103.38660156 21.89398438 -103.39820313 20.78796875 -103.41015625 19.6484375 C-103.40628906 18.58882812 -103.40242188 17.52921875 -103.3984375 16.4375 C-103.39505371 15.46683594 -103.39166992 14.49617188 -103.38818359 13.49609375 C-103 11 -103 11 -101.60400391 9.1484375 C-100 8 -100 8 -97.9375 8.1875 C-96 9 -96 9 -94 11 C-93.43479997 13.65537372 -93.26211802 16.29144713 -93 19 C-92.52691406 18.3709375 -92.05382812 17.741875 -91.56640625 17.09375 C-69.10608528 -11.97769858 -31.36566995 -19.9532783 0 0 Z " fill="#050505" transform="translate(150,56)"/>
<path d="M0 0 C3.07373047 1.65820312 3.07373047 1.65820312 6.1171875 3.78125 C6.65981232 4.15479614 7.20243713 4.52834229 7.76150513 4.91320801 C9.47464453 6.09690015 11.17462744 7.29806242 12.875 8.5 C14.03825718 9.30715143 15.2023134 10.11315259 16.3671875 10.91796875 C24.68746747 16.68746747 24.68746747 16.68746747 26 18 C26.26638689 22.21993576 26.27127175 26.44576167 26.29516602 30.6730957 C26.31234844 32.79379377 26.35621292 34.91292012 26.40039062 37.03320312 C26.4105202 38.38280102 26.41903548 39.7324122 26.42578125 41.08203125 C26.44036377 42.31155518 26.45494629 43.5410791 26.4699707 44.80786133 C25.74965834 49.70037256 23.23181851 51.08118169 19.42211914 53.92285156 C16.31016264 56.04398216 13.19094741 58.1532549 10.0625 60.25 C8.43538086 61.36761719 8.43538086 61.36761719 6.77539062 62.5078125 C5.72673828 63.21164063 4.67808594 63.91546875 3.59765625 64.640625 C2.64383057 65.28547852 1.69000488 65.93033203 0.70727539 66.59472656 C-2.3201174 68.16616428 -3.65422964 68.59316485 -7 68 C-9.26198197 66.79028067 -11.26206896 65.57964153 -13.359375 64.1328125 C-14.2441452 63.54063431 -14.2441452 63.54063431 -15.14678955 62.93649292 C-16.3874841 62.10288649 -17.62447114 61.26373854 -18.85791016 60.41943359 C-20.74991658 59.12505707 -22.65295103 57.8484117 -24.55859375 56.57421875 C-25.76370222 55.76142603 -26.96815303 54.94765718 -28.171875 54.1328125 C-28.74162048 53.74940704 -29.31136597 53.36600159 -29.89837646 52.97097778 C-33.88332933 50.23334134 -33.88332933 50.23334134 -35 48 C-35.21097648 43.71664559 -35.18579742 39.42956562 -35.18530273 35.14160156 C-35.18749152 33.00826135 -35.20565919 30.87543634 -35.22460938 28.7421875 C-35.22754294 27.39062677 -35.22952798 26.03906358 -35.23046875 24.6875 C-35.23457764 23.45386719 -35.23868652 22.22023438 -35.24291992 20.94921875 C-35 18 -35 18 -33 16 C-27.5609135 16.18262626 -24.10763529 18.5429876 -19.8125 21.5625 C-18.83772705 22.23043579 -18.83772705 22.23043579 -17.84326172 22.91186523 C-2.55852281 33.44147719 -2.55852281 33.44147719 0 36 C0.08651611 37.41570123 0.10704904 38.835595 0.09765625 40.25390625 C0.09443359 41.10791016 0.09121094 41.96191406 0.08789062 42.84179688 C0.07532227 44.18854492 0.07532227 44.18854492 0.0625 45.5625 C0.05798828 46.46419922 0.05347656 47.36589844 0.04882812 48.29492188 C0.03700225 50.53001314 0.0205222 52.76497437 0 55 C1.05960938 54.278125 2.11921875 53.55625 3.2109375 52.8125 C4.5987951 51.87475838 5.98682488 50.93727152 7.375 50 C8.42300781 49.28457031 8.42300781 49.28457031 9.4921875 48.5546875 C10.1625 48.10351562 10.8328125 47.65234375 11.5234375 47.1875 C12.450354 46.55908203 12.450354 46.55908203 13.39599609 45.91796875 C15 45 15 45 17 45 C17.90441553 37.36238702 18.62203852 29.35167284 16 22 C11.27271322 16.17541328 3.29657147 10.9293028 -4 9 C-6.26922855 9.78262198 -6.26922855 9.78262198 -8 11 C-4.56424613 14.78813888 -0.63633608 17.37390755 3.625 20.125 C4.97271897 21.00050683 6.31913299 21.8780266 7.6640625 22.7578125 C8.25654785 23.1408252 8.8490332 23.52383789 9.45947266 23.91845703 C11 25 11 25 13 27 C12.44444444 31.55555556 12.44444444 31.55555556 11 33 C6.19667247 33.66026796 3.58861173 31.83388854 -0.359375 29.23828125 C-0.9492218 28.85061081 -1.5390686 28.46294037 -2.14678955 28.06352234 C-3.38768481 27.24289084 -4.62466983 26.4163195 -5.85791016 25.58422852 C-7.74568057 24.31540322 -9.65060609 23.07604237 -11.55859375 21.83789062 C-12.76416375 21.03556887 -13.96863079 20.23158681 -15.171875 19.42578125 C-16.2659668 18.69786377 -17.36005859 17.96994629 -18.48730469 17.2199707 C-21 15 -21 15 -21.96459961 12.35302734 C-22 10 -22 10 -20.39453125 7.92578125 C-17.87866698 5.90241896 -15.36830686 3.98860786 -12.6875 2.1875 C-11.78386719 1.56230469 -10.88023438 0.93710938 -9.94921875 0.29296875 C-6.09983837 -1.3946404 -4.08092922 -0.90175415 0 0 Z " fill="#060606" transform="translate(117,77)"/>
<path d="M0 0 C6.34361735 2.42446229 12.38423806 4.87137563 17 10 C18.46800009 15.21343376 17.69346008 20.70915644 17 26 C10.65638265 23.57553771 4.61576194 21.12862437 0 16 C-1.46800009 10.78656624 -0.69346008 5.29084356 0 0 Z " fill="#F9F9F9" transform="translate(91,106)"/>
</svg>
